inDegrees=yes
name=ik_Xsens_quaternion
DataType=double
version=3
OpenSimVersion=4.4-2022-07-23-0e9fedc
endheader
time	pelvis_tilt	pelvis_list	pelvis_rotation	pelvis_tx	pelvis_ty	pelvis_tz	hip_flexion_r	hip_adduction_r	hip_rotation_r	knee_angle_r	knee_angle_r_beta	ankle_angle_r	subtalar_angle_r	mtp_angle_r	hip_flexion_l	hip_adduction_l	hip_rotation_l	knee_angle_l	knee_angle_l_beta	ankle_angle_l	subtalar_angle_l	mtp_angle_l	lumbar_extension	lumbar_bending	lumbar_rotation	arm_flex_r	arm_add_r	arm_rot_r	elbow_flex_r	pro_sup_r	wrist_flex_r	wrist_dev_r	arm_flex_l	arm_add_l	arm_rot_l	elbow_flex_l	pro_sup_l	wrist_flex_l	wrist_dev_l
24.98333333333333	11.13519589648799	-89.74542417019698	53.44980091306733	0	0.93	0	45.00000018034559	-9.999999988573329	0	60.00013817776549	1.047199962853559	-4.999999851047217	0	0	80.87852509932715	29.2666293929489	-39.8247204302272	0.1359430270567353	0.002372653417267768	-4.999999851047217	0	0	14.93059271866558	38.95993453102833	43.6171453296717	0	-15.00057206959287	0	75.00017588248406	45.00000025534058	0	5.000000137526114	-8.261230206472197	-57.54247281249712	-38.84582852596202	0.06101149239278793	45.00000025534058	0	5.000000137526114
25	11.279780439607	-89.74207683660411	53.35484612125114	0	0.93	0	45.00000018027418	-9.999999988573329	0	60.00013817998297	1.047199962892261	-4.999999851047217	0	0	81.48966412653985	29.0406328870247	-39.81999873265596	0.1369715416169397	0.002390604382748035	-4.999999851047217	0	0	14.95694885093188	38.99361328685759	44.00064062289696	0	-15.00057173031102	0	75.00017588244185	45.00000025534058	0	5.000000137526114	-8.419797819724987	-57.70286336675863	-38.91815912864029	0.06072656074431041	45.00000025534058	0	5.000000137526114
25.01666666666667	11.40407771086856	-89.70222224687011	53.27926144340538	0	0.93	0	45.000000180189	-9.999999988573329	0	60.00013818262785	1.047199962938423	-4.999999851047217	0	0	82.08645799789713	28.8357499106377	-39.79132497734763	0.1406226217201549	0.002454327751803194	-4.999999851047217	0	0	14.95694563829934	39.00432403876971	44.33603398741867	0	-15.00057132549011	0	75.00017588239152	45.00000025534058	0	5.000000137526114	-8.586845752803795	-57.8515388548802	-38.95295987099993	0.06000370931424218	45.00000025534058	0	5.000000137526114
25.03333333333333	11.65113849109776	-89.64370699752142	53.0929224408011	0	0.93	0	45.0000001800053	-9.999999988573329	0	60.00013818833381	1.04719996303801	-4.999999851047217	0	0	82.66475377621556	28.41510834230306	-39.75519559683829	0.1400296371171749	0.002443978218067563	-4.999999851047217	0	0	14.93080405655149	39.0305665558974	44.85501738658061	0	-15.00057045161848	0	75.00017588228295	45.00000025534058	0	5.000000137526114	-8.845303399758823	-58.1168855247805	-38.99523998192336	0.05966597951229108	45.00000025534058	0	5.000000137526114
25.05	11.91812120916814	-89.55416588317543	52.8881280720076	0	0.93	0	45.00000017979092	-9.999999988573329	0	60.00013819499724	1.047199963154309	-4.999999851047217	0	0	83.20985106364132	27.94731574155547	-39.69130305644482	0.1376746562273191	0.002402876047718033	-4.999999851047217	0	0	14.89135296601354	39.05426920633876	45.40137145206093	0	-15.00056943027491	0	75.00017588215628	45.00000025534058	0	5.000000137526114	-9.123638521704832	-58.40514434929129	-39.0284834002643	0.05937547399371888	45.00000025534058	0	5.000000137526114
25.06666666666667	12.23101270970353	-89.46153003756567	52.63841829126906	0	0.93	0	45.00000017944905	-9.999999988573329	0	60.00013820563223	1.047199963339925	-4.999999851047217	0	0	83.72249901363324	27.38372387913162	-39.62445669273449	0.1301367994937636	0.002271315629173865	-4.999999851047217	0	0	14.84489941350657	39.08076537513334	46.02310278931161	0	-15.00056779814117	0	75.00017588195419	45.00000025534058	0	5.000000137526114	-9.41555724218634	-58.74093010488377	-39.06164249698011	0.05895237243148314	45.00000025534058	0	5.000000137526114
25.08333333333333	12.16919600308063	-89.27693750509319	52.71352062750159	0	0.93	0	45.00000017946135	-9.999999988573329	0	60.00013820525018	1.047199963333257	-4.999999851047217	0	0	84.11914635631368	27.51886619498713	-39.53215074329893	0.1208751447780109	0.002109669260201121	-4.999999851047217	0	0	14.82416055839695	39.01469195359718	46.03775545043345	0	-15.00056785693079	0	75.00017588196148	45.00000025534058	0	5.000000137526114	-9.496319050213094	-58.72099739243458	-39.00363406817377	0.05807618477869221	45.00000025534058	0	5.000000137526114
25.1	12.19189853758058	-89.14586371635207	52.69624845370163	0	0.93	0	45.00000017942612	-9.999999988573329	0	60.0001382063533	1.04719996335251	-4.999999851047217	0	0	84.54152423515511	27.46163583191601	-39.48183534501426	0.1108773580339555	0.00193517496360511	-4.999999851047217	0	0	14.79549587242978	38.96732840079321	46.18538201988037	0	-15.00056768768952	0	75.00017588194069	45.00000025534058	0	5.000000137526114	-9.631125965351837	-58.7758583390804	-38.96566817751917	0.05788240612056598	45.00000025534058	0	5.000000137526114
25.11666666666667	12.24436605597231	-89.05696835265493	52.64289469176202	0	0.93	0	45.00000017937487	-9.999999988573329	0	60.00013820795816	1.04719996338052	-4.999999851047217	0	0	84.95006469257281	27.34092977251396	-39.43459981822913	0.1086231736447774	0.001895832024066895	-4.999999851047217	0	0	14.76176460406747	38.92219612592654	46.3803306169246	0	-15.00056744136553	0	75.00017588191039	45.00000025534058	0	5.000000137526114	-9.789728970049804	-58.8564048835244	-38.93101917965141	0.0568315368471059	45.00000025534058	0	5.000000137526114
25.13333333333333	12.28209268370535	-89.00456733240308	52.62438695483702	0	0.93	0	45.00000017935178	-9.999999988573329	0	60.00013820868634	1.047199963393229	-4.999999851047217	0	0	85.33622329064589	27.26734799078664	-39.34150174339764	0.1030223383081914	0.001798079006581424	-4.999999851047217	0	0	14.73546889860368	38.88263573905364	46.53648336856848	0	-15.00056733003705	0	75.00017588189674	45.00000025534058	0	5.000000137526114	-9.923903814624277	-58.91379866794177	-38.9009284716352	0.05750070067192565	45.00000025534058	0	5.000000137526114
25.15	12.34291534734164	-88.89840823439214	52.57803462101725	0	0.93	0	45.00000017931444	-9.999999988573329	0	60.00013820985865	1.04719996341369	-4.999999851047217	0	0	85.66083790082246	27.15086554140055	-39.29822831560843	0.1004181388804982	0.001752627152189627	-4.999999851047217	0	0	14.6901203833243	38.84517646019675	46.72831505501297	0	-15.00056715036961	0	75.00017588187465	45.00000025534058	0	5.000000137526114	-10.08843548252471	-59.00567590848756	-38.86303019865026	0.05771785152951173	45.00000025534058	0	5.000000137526114
25.16666666666667	12.42850521133593	-88.82087807838575	52.50138705144775	0	0.93	0	45.00000017925348	-9.999999988573329	0	60.00013821176601	1.04719996344698	-4.999999851047217	0	0	85.97508243774865	26.96752519438968	-39.28438267590977	0.1010120388266336	0.001762992661677107	-4.999999851047217	0	0	14.65077120529241	38.82802399522824	46.96432284390892	0	-15.00056685754353	0	75.00017588183863	45.00000025534058	0	5.000000137526114	-10.24940709775008	-59.12395028119991	-38.84792041590509	0.05722958479214306	45.00000025534058	0	5.000000137526114
25.18333333333333	12.48819293030878	-88.71862339603884	52.44103622975536	0	0.93	0	45.00000017919615	-9.999999988573329	0	60.00013821355937	1.04719996347828	-4.999999851047217	0	0	86.25606389178468	26.81863209360266	-39.26227270330514	0.09947111163911651	0.001736098408721437	-4.999999851047217	0	0	14.61125141304919	38.80578100412342	47.17504849384157	0	-15.00056658196368	0	75.00017588180475	45.00000025534058	0	5.000000137526114	-10.40045744670081	-59.23155028831417	-38.82730554121657	0.05719715311689844	45.00000025534058	0	5.000000137526114
25.2	12.54100199104856	-88.65846486781723	52.39138194482467	0	0.93	0	45.00000017914387	-9.999999988573329	0	60.00013821519497	1.047199963506826	-4.999999851047217	0	0	86.52134082365281	26.6861966326022	-39.25541567727151	0.09816337131350046	0.001713274034278334	-4.999999851047217	0	0	14.58089863303422	38.80131422666339	47.36746947497378	0	-15.00056633053564	0	75.00017588177383	45.00000025534058	0	5.000000137526114	-10.52132090965834	-59.3351519617834	-38.82318925038196	0.05744907966018419	45.00000025534058	0	5.000000137526114
25.21666666666667	12.59448968878845	-88.66694429526773	52.34814986189512	0	0.93	0	45.00000017909601	-9.999999988573329	0	60.0001382166913	1.047199963532942	-4.999999851047217	0	0	86.79067109335003	26.56776204150422	-39.27143551914753	0.09935114439942447	0.001734004585394281	-4.999999851047217	0	0	14.56721364328299	38.80432243108309	47.55057817640275	0	-15.00056610048945	0	75.00017588174556	45.00000025534058	0	5.000000137526114	-10.6180172350929	-59.42390388596593	-38.83424614055895	0.05736752873523016	45.00000025534058	0	5.000000137526114
25.23333333333333	12.59301583096493	-88.72025293476528	52.36027119748738	0	0.93	0	45.00000017908426	-9.999999988573329	0	60.00013821705934	1.047199963539366	-4.999999851047217	0	0	87.0363129732177	26.54410860310067	-39.25685730432066	0.09820372613611962	0.001713978358802096	-4.999999851047217	0	0	14.56415910325175	38.77773530478742	47.63088832391341	0	-15.00056604392848	0	75.00017588173861	45.00000025534058	0	5.000000137526114	-10.68339677004012	-59.44097223129481	-38.82135917378982	0.05746206272313408	45.00000025534058	0	5.000000137526114
25.25	12.58640658054731	-88.76348766735099	52.37442025293915	0	0.93	0	45.00000017907415	-9.999999988573329	0	60.00013821737788	1.047199963544925	-4.999999851047217	0	0	87.27035101091825	26.52250365764522	-39.27963584030241	0.1024407875471567	0.001787929031033891	-4.999999851047217	0	0	14.54773534406579	38.74058133994391	47.68418150552872	0	-15.00056599505668	0	75.00017588173266	45.00000025534058	0	5.000000137526114	-10.75248257478936	-59.45343967837334	-38.78955074666268	0.05667368346554366	45.00000025534058	0	5.000000137526114
25.26666666666667	12.57981283551956	-88.83376451764002	52.3890344679139	0	0.93	0	45.00000017906473	-9.999999988573329	0	60.000138217672	1.047199963550059	-4.999999851047217	0	0	87.4571159400961	26.51590152043272	-39.31704632047072	0.1053297706761802	0.001838351298669919	-4.999999851047217	0	0	14.53685840115397	38.71692522617922	47.75105269802975	0	-15.00056594980772	0	75.00017588172706	45.00000025534058	0	5.000000137526114	-10.81364234894055	-59.47509446618587	-38.77228245304185	0.05697378202568272	45.00000025534058	0	5.000000137526114
